<svg width="20" height="20" viewBox="0 0 20 20" fill="none" xmlns="http://www.w3.org/2000/svg">
<path d="M10.0002 0.75C11.6577 0.750072 13.2472 1.40902 14.4192 2.58105C15.5912 3.75314 16.2502 5.34246 16.2502 7V7.75C16.2502 9.86028 16.9958 11.7957 18.2405 13.3076L18.4963 13.6045C18.5237 13.6348 18.544 13.6723 18.554 13.7119C18.5638 13.7513 18.5636 13.7926 18.554 13.832C18.5442 13.8717 18.5245 13.909 18.4973 13.9395C18.4837 13.9547 18.4682 13.9681 18.4514 13.9795L18.3977 14.0068C16.8853 14.5652 15.3023 14.9767 13.6653 15.2246L13.2073 15.2939L13.2415 15.7559C13.274 16.2013 13.2147 16.6489 13.0667 17.0703C12.9185 17.4918 12.6843 17.8778 12.3801 18.2051C12.076 18.5323 11.7077 18.7932 11.2981 18.9717C10.8886 19.1501 10.4469 19.2431 10.0002 19.2432C9.55346 19.2432 9.111 19.1502 8.70142 18.9717C8.29197 18.7932 7.92348 18.5322 7.61938 18.2051C7.31534 17.8779 7.08193 17.4917 6.93384 17.0703C6.78576 16.6489 6.72648 16.2013 6.75903 15.7559L6.79224 15.2939L6.33521 15.2246C4.92219 15.0105 3.53103 14.6714 2.17896 14.2109L1.60181 14.0059C1.58285 13.9988 1.5647 13.9898 1.5481 13.9785L1.5022 13.9385C1.48872 13.9234 1.47743 13.9064 1.46802 13.8887L1.44556 13.8311C1.44076 13.8115 1.43873 13.7915 1.43872 13.7715L1.44653 13.7109C1.45643 13.6713 1.47589 13.6348 1.50317 13.6045L1.5022 13.6035C2.86092 12.0987 3.65074 10.1714 3.74146 8.1543L3.75024 7.74902V7C3.75024 5.34256 4.40844 3.75312 5.58032 2.58105C6.75242 1.40895 8.34264 0.75 10.0002 0.75ZM12.2034 15.4023C10.7377 15.5344 9.26281 15.5344 7.79712 15.4023L7.27466 15.3545L7.2522 15.8789C7.23656 16.2495 7.29597 16.6198 7.427 16.9668C7.55803 17.3137 7.75829 17.6308 8.01489 17.8984C8.20724 18.099 8.42877 18.2686 8.67114 18.4023L8.92114 18.5244C9.26221 18.6699 9.62945 18.7451 10.0002 18.7451C10.371 18.7451 10.7383 18.6699 11.0793 18.5244C11.4202 18.379 11.7281 18.1659 11.9846 17.8984C12.2412 17.6308 12.4415 17.3136 12.5725 16.9668C12.7035 16.6198 12.7629 16.2495 12.7473 15.8789L12.7258 15.3545L12.2034 15.4023Z" stroke="#696778"/>
</svg>
